<svg xmlns="http://www.w3.org/2000/svg" xmlns:xlink="http://www.w3.org/1999/xlink" xmlns:lucid="lucid" width="1419" height="1095"><g transform="translate(-449 -1486)" lucid:page-tab-id="0_0"><path d="M1818.5 1500c16.57 0 30 13.43 30 30v1000c0 16.57-13.43 30-30 30h-1320c-16.57 0-30-13.43-30-30V1530c0-16.57 13.43-30 30-30z" stroke="#b2b2b2" stroke-width="2" fill-opacity="0"/><path d="M716 1608c0-4.42 3.58-8 8-8h104c4.42 0 8 3.58 8 8v44c0 4.42-3.58 8-8 8H724c-4.42 0-8-3.58-8-8z" stroke="#000" stroke-opacity="0" fill="#8b90ff"/><use xlink:href="#a" transform="matrix(1,0,0,1,721.2690000000039,1605.269) translate(22.901234567901227 27.110222222222223)"/><path d="M716 1862c0-4.42 3.58-8 8-8h104c4.42 0 8 3.58 8 8v44c0 4.42-3.58 8-8 8H724c-4.42 0-8-3.58-8-8z" stroke="#000" stroke-opacity="0" fill="#8b90ff"/><use xlink:href="#b" transform="matrix(1,0,0,1,721.2690000000039,1859.269) translate(43.172839506172835 20.860222222222223)"/><use xlink:href="#c" transform="matrix(1,0,0,1,721.2690000000039,1859.269) translate(24.925925925925924 42.193555555555555)"/><path d="M896 1608c0-4.42 3.58-8 8-8h104c4.42 0 8 3.58 8 8v44c0 4.42-3.58 8-8 8H904c-4.42 0-8-3.58-8-8z" stroke="#000" stroke-opacity="0" fill="#b4b7ff"/><use xlink:href="#d" transform="matrix(1,0,0,1,901.2690000000039,1605.269) translate(39.716049382716044 20.860222222222223)"/><use xlink:href="#e" transform="matrix(1,0,0,1,901.2690000000039,1605.269) translate(29.888888888888886 42.193555555555555)"/><a xlink:href="https://lucidchart.zendesk.com/hc/en-us" target="_blank"><path d="M896 1862c0-4.42 3.58-8 8-8h104c4.42 0 8 3.58 8 8v44c0 4.42-3.58 8-8 8H904c-4.42 0-8-3.58-8-8z" stroke="#000" stroke-opacity="0" fill="#b4b7ff"/><use xlink:href="#f" transform="matrix(1,0,0,1,901.2690000000039,1859.269) translate(39.716049382716044 27.110222222222223)"/><path class="lucid-link lucid-hotspot lucid-overlay-hotspot" d="M896 1862c0-4.42 3.58-8 8-8h104c4.42 0 8 3.58 8 8v44c0 4.42-3.58 8-8 8H904c-4.42 0-8-3.58-8-8z" fill="none"/></a><path d="M836.5 1884h43.12" stroke="#333" fill="none"/><path d="M836.5 1884.5h-.5v-1h.5z" fill="#333"/><path d="M894.38 1884l-14.26 4.64v-9.28z" stroke="#333" fill="#333"/><path d="M836.5 1630h43.12" stroke="#333" fill="none"/><path d="M836.5 1630.5h-.5v-1h.5z" fill="#333"/><path d="M894.38 1630l-14.26 4.64v-9.28z" stroke="#333" fill="#333"/><path d="M528.5 1798c0-4.42 3.58-8 8-8h104c4.42 0 8 3.58 8 8v44c0 4.42-3.58 8-8 8h-104c-4.42 0-8-3.58-8-8z" stroke="#000" stroke-opacity="0" fill="#636aff"/><use xlink:href="#g" transform="matrix(1,0,0,1,533.7690000000041,1795.269) translate(11.592592592592586 30.312055555555553)"/><path d="M649 1820h25c6.63 0 12-5.37 12-12v-166c0-6.63 5.37-12 12-12h1.62" stroke="#333" fill="none"/><path d="M649 1820.5h-.5v-1h.5z" fill="#333"/><path d="M714.38 1630l-14.26 4.64v-9.28z" stroke="#333" fill="#333"/><path d="M649 1820h27.5c6.63 0 12 5.37 12 12v40.88c0 6.14 4.98 11.12 11.12 11.12" stroke="#333" fill="none"/><path d="M649 1820.5h-.5v-1h.5z" fill="#333"/><path d="M714.38 1884l-14.26 4.64v-9.28z" stroke="#333" fill="#333"/><path d="M476 1520h240v60H476z" stroke="#000" stroke-opacity="0" stroke-width="2" fill="#fff" fill-opacity="0"/><use xlink:href="#h" transform="matrix(1,0,0,1,481.00000000000387,1525) translate(11.891975308641946 28.930555555555557)"/><use xlink:href="#i" transform="matrix(1,0,0,1,481.00000000000387,1525) translate(138.05246913580248 28.930555555555557)"/><path d="M896 1768c0-4.42 3.58-8 8-8h104c4.42 0 8 3.58 8 8v44c0 4.42-3.58 8-8 8H904c-4.42 0-8-3.58-8-8z" stroke="#000" stroke-opacity="0" fill="#b4b7ff"/><use xlink:href="#j" transform="matrix(1,0,0,1,901.2690000000039,1765.269) translate(39.197530864197525 27.110222222222223)"/><path d="M836.5 1884H854c6.63 0 12-5.37 12-12v-70c0-6.63 5.37-12 12-12h1.62" stroke="#333" fill="none"/><path d="M836.5 1884.5h-.5v-1h.5z" fill="#333"/><path d="M894.38 1790l-14.26 4.64v-9.28z" stroke="#333" fill="#333"/><a xlink:href="https://www.lucidchart.com/blog/" target="_blank"><path d="M896 1956c0-4.42 3.58-8 8-8h104c4.42 0 8 3.58 8 8v44c0 4.42-3.58 8-8 8H904c-4.42 0-8-3.58-8-8z" stroke="#000" stroke-opacity="0" fill="#b4b7ff"/><use xlink:href="#k" transform="matrix(1,0,0,1,901.2690000000039,1953.269) translate(21.962962962962962 27.110222222222223)"/><path class="lucid-link lucid-hotspot lucid-overlay-hotspot" d="M896 1956c0-4.42 3.58-8 8-8h104c4.42 0 8 3.58 8 8v44c0 4.42-3.58 8-8 8H904c-4.42 0-8-3.58-8-8z" fill="none"/></a><path d="M836.5 1884H854c6.63 0 12 5.37 12 12v70c0 6.63 5.37 12 12 12h1.62" stroke="#333" fill="none"/><path d="M836.5 1884.5h-.5v-1h.5z" fill="#333"/><path d="M894.38 1978l-14.26 4.64v-9.28z" stroke="#333" fill="#333"/><path d="M716 2202c0-4.42 3.58-8 8-8h104c4.42 0 8 3.58 8 8v44c0 4.42-3.58 8-8 8H724c-4.42 0-8-3.58-8-8z" stroke="#000" stroke-opacity="0" fill="#8b90ff"/><use xlink:href="#b" transform="matrix(1,0,0,1,721.2690000000039,2199.269) translate(43.172839506172835 19.64538888888889)"/><use xlink:href="#l" transform="matrix(1,0,0,1,721.2690000000039,2199.269) translate(5.666666666666655 40.978722222222224)"/><a xlink:href="https://lucidchart.zendesk.com/hc/en-us" target="_blank"><path d="M896 2268c0-4.42 3.58-8 8-8h104c4.42 0 8 3.58 8 8v44c0 4.42-3.58 8-8 8H904c-4.42 0-8-3.58-8-8z" stroke="#000" stroke-opacity="0" fill="#b4b7ff"/><use xlink:href="#k" transform="matrix(1,0,0,1,901.2690000000039,2265.269) translate(21.962962962962962 27.110222222222223)"/><path class="lucid-link lucid-hotspot lucid-overlay-hotspot" d="M896 2268c0-4.42 3.58-8 8-8h104c4.42 0 8 3.58 8 8v44c0 4.42-3.58 8-8 8H904c-4.42 0-8-3.58-8-8z" fill="none"/></a><path d="M836.5 2224H854c6.63 0 12 5.37 12 12v42c0 6.63 5.37 12 12 12h1.62" stroke="#333" fill="none"/><path d="M836.5 2224.5h-.5v-1h.5z" fill="#333"/><path d="M894.38 2290l-14.26 4.64v-9.28z" stroke="#333" fill="#333"/><path d="M896 2148c0-4.42 3.58-8 8-8h104c4.42 0 8 3.58 8 8v44c0 4.42-3.58 8-8 8H904c-4.42 0-8-3.58-8-8z" stroke="#000" stroke-opacity="0" fill="#b4b7ff"/><use xlink:href="#j" transform="matrix(1,0,0,1,901.2690000000039,2145.269) translate(39.197530864197525 27.110222222222223)"/><path d="M836.5 2224H854c6.63 0 12-5.37 12-12v-30c0-6.63 5.37-12 12-12h1.62" stroke="#333" fill="none"/><path d="M836.5 2224.5h-.5v-1h.5z" fill="#333"/><path d="M894.38 2170l-14.26 4.64v-9.28z" stroke="#333" fill="#333"/><path d="M649 1820h27.5c6.63 0 12 5.37 12 12v380.88c0 6.14 4.98 11.12 11.12 11.12" stroke="#333" fill="none"/><path d="M649 1820.5h-.5v-1h.5z" fill="#333"/><path d="M714.38 2224l-14.26 4.64v-9.28z" stroke="#333" fill="#333"/><path d="M1185.52 1862c0-4.42 3.58-8 8-8h104c4.42 0 8 3.58 8 8v44c0 4.42-3.58 8-8 8h-104c-4.42 0-8-3.58-8-8z" stroke="#000" stroke-opacity="0" fill="#dedfff"/><use xlink:href="#m" transform="matrix(1,0,0,1,1190.7903070194045,1859.269) translate(30.358024691358025 20.860222222222223)"/><use xlink:href="#n" transform="matrix(1,0,0,1,1190.7903070194045,1859.269) translate(21.962962962962962 42.193555555555555)"/><path d="M1016.5 1790h72.26c6.63 0 12 5.37 12 12v70c0 6.63 5.37 12 12 12h56.38" stroke="#333" fill="none"/><path d="M1016.5 1790.5h-.5v-1h.5z" fill="#333"/><path d="M1183.9 1884l-14.26 4.64v-9.28z" stroke="#333" fill="#333"/><path d="M1366 1862c0-4.42 3.58-8 8-8h104c4.42 0 8 3.58 8 8v44c0 4.42-3.58 8-8 8h-104c-4.42 0-8-3.58-8-8z" stroke="#000" stroke-opacity="0" fill="#dedfff"/><use xlink:href="#o" transform="matrix(1,0,0,1,1371.2690000000039,1859.269) translate(15.543209876543207 20.860222222222223)"/><use xlink:href="#p" transform="matrix(1,0,0,1,1371.2690000000039,1859.269) translate(61.91358024691358 20.860222222222223)"/><use xlink:href="#q" transform="matrix(1,0,0,1,1371.2690000000039,1859.269) translate(22.901234567901234 42.193555555555555)"/><use xlink:href="#r" transform="matrix(1,0,0,1,1371.2690000000039,1859.269) translate(42.65432098765432 42.193555555555555)"/><path d="M1526 1862c0-4.42 3.58-8 8-8h104c4.42 0 8 3.58 8 8v44c0 4.42-3.58 8-8 8h-104c-4.42 0-8-3.58-8-8z" stroke="#000" stroke-opacity="0" fill="#dedfff"/><use xlink:href="#s" transform="matrix(1,0,0,1,1531.2690000000039,1859.269) translate(22.975308641975303 20.860222222222223)"/><use xlink:href="#t" transform="matrix(1,0,0,1,1531.2690000000039,1859.269) translate(54.48148148148148 20.860222222222223)"/><use xlink:href="#u" transform="matrix(1,0,0,1,1531.2690000000039,1859.269) translate(33.29629629629629 42.193555555555555)"/><path d="M1306.02 1884h43.6" stroke="#333" fill="none"/><path d="M1306.03 1884.5h-.5v-1h.5z" fill="#333"/><path d="M1364.38 1884l-14.26 4.64v-9.28z" stroke="#333" fill="#333"/><path d="M1486.5 1884h23.12" stroke="#333" fill="none"/><path d="M1486.5 1884.5h-.5v-1h.5z" fill="#333"/><path d="M1524.38 1884l-14.26 4.64v-9.28z" stroke="#333" fill="#333"/><path d="M1686 1862c0-4.42 3.58-8 8-8h104c4.42 0 8 3.58 8 8v44c0 4.42-3.58 8-8 8h-104c-4.42 0-8-3.58-8-8z" stroke="#000" stroke-opacity="0" fill="#dedfff"/><use xlink:href="#s" transform="matrix(1,0,0,1,1691.2690000000039,1859.269) translate(22.975308641975303 20.860222222222223)"/><use xlink:href="#t" transform="matrix(1,0,0,1,1691.2690000000039,1859.269) translate(54.48148148148148 20.860222222222223)"/><use xlink:href="#v" transform="matrix(1,0,0,1,1691.2690000000039,1859.269) translate(28.358024691358025 42.193555555555555)"/><path d="M1646.5 1884h23.12" stroke="#333" fill="none"/><path d="M1646.5 1884.5h-.5v-1h.5z" fill="#333"/><path d="M1684.38 1884l-14.26 4.64v-9.28z" stroke="#333" fill="#333"/><path d="M1088.5 2148c0-4.42 3.58-8 8-8h104c4.42 0 8 3.58 8 8v44c0 4.42-3.58 8-8 8h-104c-4.42 0-8-3.58-8-8z" stroke="#000" stroke-opacity="0" fill="#dedfff"/><use xlink:href="#w" transform="matrix(1,0,0,1,1093.769000000004,2145.269) translate(5.641975308641966 19.64538888888889)"/><use xlink:href="#x" transform="matrix(1,0,0,1,1093.769000000004,2145.269) translate(25.419753086419746 40.978722222222224)"/><path d="M1016.5 2170h55.62" stroke="#333" fill="none"/><path d="M1016.5 2170.5h-.5v-1h.5z" fill="#333"/><path d="M1086.88 2170l-14.26 4.64v-9.28z" stroke="#333" fill="#333"/><path d="M716 2368c0-4.42 3.58-8 8-8h104c4.42 0 8 3.58 8 8v44c0 4.42-3.58 8-8 8H724c-4.42 0-8-3.58-8-8z" stroke="#000" stroke-opacity="0" fill="#8b90ff"/><g><use xlink:href="#y" transform="matrix(1,0,0,1,721.2690000000039,2365.269) translate(22.925925925925924 27.110222222222223)"/></g><path d="M649 1820h27.5c6.63 0 12 5.37 12 12v546.88c0 6.14 4.98 11.12 11.12 11.12" stroke="#333" fill="none"/><path d="M649 1820.5h-.5v-1h.5z" fill="#333"/><path d="M714.38 2390l-14.26 4.64v-9.28z" stroke="#333" fill="#333"/><path d="M716 2474c0-4.42 3.58-8 8-8h104c4.42 0 8 3.58 8 8v44c0 4.42-3.58 8-8 8H724c-4.42 0-8-3.58-8-8z" stroke="#000" stroke-opacity="0" fill="#8b90ff"/><g><use xlink:href="#z" transform="matrix(1,0,0,1,721.2690000000039,2471.269) translate(36.77777777777777 27.110222222222223)"/></g><path d="M649 1820h27.5c6.63 0 12 5.37 12 12v652.88c0 6.14 4.98 11.12 11.12 11.12" stroke="#333" fill="none"/><path d="M649 1820.5h-.5v-1h.5z" fill="#333"/><path d="M714.38 2496l-14.26 4.64v-9.28z" stroke="#333" fill="#333"/><path d="M776 1660.5v177.12" stroke="#333" fill="none"/><path d="M776.5 1660.5h-1v-.5h1z" fill="#333"/><path d="M776 1852.38l-4.64-14.26h9.28z" stroke="#333" fill="#333"/><defs><path fill="#fff" d="M205 0l-28-72H64L36 0H1l101-248h38L239 0h-34zm-38-99l-47-123c-12 45-31 82-46 123h93" id="A"/><path fill="#fff" d="M96-169c-40 0-48 33-48 73s9 75 48 75c24 0 41-14 43-38l32 2c-6 37-31 61-74 61-59 0-76-41-82-99-10-93 101-131 147-64 4 7 5 14 7 22l-32 3c-4-21-16-35-41-35" id="B"/><path fill="#fff" d="M100-194c62-1 85 37 85 99 1 63-27 99-86 99S16-35 15-95c0-66 28-99 85-99zM99-20c44 1 53-31 53-75 0-43-8-75-51-75s-53 32-53 75 10 74 51 75" id="C"/><path fill="#fff" d="M84 4C-5 8 30-112 23-190h32v120c0 31 7 50 39 49 72-2 45-101 50-169h31l1 190h-30c-1-10 1-25-2-33-11 22-28 36-60 37" id="D"/><path fill="#fff" d="M117-194c89-4 53 116 60 194h-32v-121c0-31-8-49-39-48C34-167 62-67 57 0H25l-1-190h30c1 10-1 24 2 32 11-22 29-35 61-36" id="E"/><path fill="#fff" d="M59-47c-2 24 18 29 38 22v24C64 9 27 4 27-40v-127H5v-23h24l9-43h21v43h35v23H59v120" id="F"/><g id="a"><use transform="matrix(0.04938271604938272,0,0,0.04938271604938272,0,0)" xlink:href="#A"/><use transform="matrix(0.04938271604938272,0,0,0.04938271604938272,11.851851851851853,0)" xlink:href="#B"/><use transform="matrix(0.04938271604938272,0,0,0.04938271604938272,20.74074074074074,0)" xlink:href="#B"/><use transform="matrix(0.04938271604938272,0,0,0.04938271604938272,29.629629629629633,0)" xlink:href="#C"/><use transform="matrix(0.04938271604938272,0,0,0.04938271604938272,39.50617283950618,0)" xlink:href="#D"/><use transform="matrix(0.04938271604938272,0,0,0.04938271604938272,49.38271604938272,0)" xlink:href="#E"/><use transform="matrix(0.04938271604938272,0,0,0.04938271604938272,59.25925925925927,0)" xlink:href="#F"/></g><path fill="#fff" d="M240 0l2-218c-23 76-54 145-80 218h-23L58-218 59 0H30v-248h44l77 211c21-75 51-140 76-211h43V0h-30" id="G"/><path fill="#fff" d="M179-190L93 31C79 59 56 82 12 73V49c39 6 53-20 64-50L1-190h34L92-34l54-156h33" id="H"/><g id="b"><use transform="matrix(0.04938271604938272,0,0,0.04938271604938272,0,0)" xlink:href="#G"/><use transform="matrix(0.04938271604938272,0,0,0.04938271604938272,14.765432098765434,0)" xlink:href="#H"/></g><path fill="#fff" d="M30 0v-248h33v221h125V0H30" id="I"/><path fill="#fff" d="M24-231v-30h32v30H24zM24 0v-190h32V0H24" id="J"/><path fill="#fff" d="M135-143c-3-34-86-38-87 0 15 53 115 12 119 90S17 21 10-45l28-5c4 36 97 45 98 0-10-56-113-15-118-90-4-57 82-63 122-42 12 7 21 19 24 35" id="K"/><path fill="#fff" d="M177-190C167-65 218 103 67 71c-23-6-38-20-44-43l32-5c15 47 100 32 89-28v-30C133-14 115 1 83 1 29 1 15-40 15-95c0-56 16-97 71-98 29-1 48 16 59 35 1-10 0-23 2-32h30zM94-22c36 0 50-32 50-73 0-42-14-75-50-75-39 0-46 34-46 75s6 73 46 73" id="L"/><g id="c"><use transform="matrix(0.04938271604938272,0,0,0.04938271604938272,0,0)" xlink:href="#I"/><use transform="matrix(0.04938271604938272,0,0,0.04938271604938272,9.876543209876544,0)" xlink:href="#J"/><use transform="matrix(0.04938271604938272,0,0,0.04938271604938272,13.777777777777779,0)" xlink:href="#K"/><use transform="matrix(0.04938271604938272,0,0,0.04938271604938272,22.666666666666668,0)" xlink:href="#F"/><use transform="matrix(0.04938271604938272,0,0,0.04938271604938272,27.60493827160494,0)" xlink:href="#J"/><use transform="matrix(0.04938271604938272,0,0,0.04938271604938272,31.506172839506174,0)" xlink:href="#E"/><use transform="matrix(0.04938271604938272,0,0,0.04938271604938272,41.38271604938272,0)" xlink:href="#L"/><use transform="matrix(0.04938271604938272,0,0,0.04938271604938272,51.25925925925927,0)" xlink:href="#K"/></g><path fill="#fff" d="M30 0v-248h187v28H63v79h144v27H63v87h162V0H30" id="M"/><path fill="#fff" d="M85-194c31 0 48 13 60 33l-1-100h32l1 261h-30c-2-10 0-23-3-31C134-8 116 4 85 4 32 4 16-35 15-94c0-66 23-100 70-100zm9 24c-40 0-46 34-46 75 0 40 6 74 45 74 42 0 51-32 51-76 0-42-9-74-50-73" id="N"/><g id="d"><use transform="matrix(0.04938271604938272,0,0,0.04938271604938272,0,0)" xlink:href="#M"/><use transform="matrix(0.04938271604938272,0,0,0.04938271604938272,11.851851851851853,0)" xlink:href="#N"/><use transform="matrix(0.04938271604938272,0,0,0.04938271604938272,21.7283950617284,0)" xlink:href="#J"/><use transform="matrix(0.04938271604938272,0,0,0.04938271604938272,25.629629629629633,0)" xlink:href="#F"/></g><path fill="#fff" d="M30-248c87 1 191-15 191 75 0 78-77 80-158 76V0H30v-248zm33 125c57 0 124 11 124-50 0-59-68-47-124-48v98" id="O"/><path fill="#fff" d="M114-163C36-179 61-72 57 0H25l-1-190h30c1 12-1 29 2 39 6-27 23-49 58-41v29" id="P"/><path fill="#fff" d="M101-234c-31-9-42 10-38 44h38v23H63V0H32v-167H5v-23h27c-7-52 17-82 69-68v24" id="Q"/><path fill="#fff" d="M24 0v-261h32V0H24" id="R"/><path fill="#fff" d="M100-194c63 0 86 42 84 106H49c0 40 14 67 53 68 26 1 43-12 49-29l28 8c-11 28-37 45-77 45C44 4 14-33 15-96c1-61 26-98 85-98zm52 81c6-60-76-77-97-28-3 7-6 17-6 28h103" id="S"/><g id="e"><use transform="matrix(0.04938271604938272,0,0,0.04938271604938272,0,0)" xlink:href="#O"/><use transform="matrix(0.04938271604938272,0,0,0.04938271604938272,11.851851851851853,0)" xlink:href="#P"/><use transform="matrix(0.04938271604938272,0,0,0.04938271604938272,17.728395061728396,0)" xlink:href="#C"/><use transform="matrix(0.04938271604938272,0,0,0.04938271604938272,27.60493827160494,0)" xlink:href="#Q"/><use transform="matrix(0.04938271604938272,0,0,0.04938271604938272,32.543209876543216,0)" xlink:href="#J"/><use transform="matrix(0.04938271604938272,0,0,0.04938271604938272,36.44444444444445,0)" xlink:href="#R"/><use transform="matrix(0.04938271604938272,0,0,0.04938271604938272,40.345679012345684,0)" xlink:href="#S"/></g><g id="f"><use transform="matrix(0.04938271604938272,0,0,0.04938271604938272,0,0)" xlink:href="#M"/><use transform="matrix(0.04938271604938272,0,0,0.04938271604938272,11.851851851851853,0)" xlink:href="#N"/><use transform="matrix(0.04938271604938272,0,0,0.04938271604938272,21.7283950617284,0)" xlink:href="#J"/><use transform="matrix(0.04938271604938272,0,0,0.04938271604938272,25.629629629629633,0)" xlink:href="#F"/></g><path fill="#fff" d="M30-248c118-7 216 8 213 122C240-48 200 0 122 0H30v-248zM63-27c89 8 146-16 146-99s-60-101-146-95v194" id="T"/><path fill="#fff" d="M141-36C126-15 110 5 73 4 37 3 15-17 15-53c-1-64 63-63 125-63 3-35-9-54-41-54-24 1-41 7-42 31l-33-3c5-37 33-52 76-52 45 0 72 20 72 64v82c-1 20 7 32 28 27v20c-31 9-61-2-59-35zM48-53c0 20 12 33 32 33 41-3 63-29 60-74-43 2-92-5-92 41" id="U"/><path fill="#fff" d="M106-169C34-169 62-67 57 0H25v-261h32l-1 103c12-21 28-36 61-36 89 0 53 116 60 194h-32v-121c2-32-8-49-39-48" id="V"/><path fill="#fff" d="M115-194c53 0 69 39 70 98 0 66-23 100-70 100C84 3 66-7 56-30L54 0H23l1-261h32v101c10-23 28-34 59-34zm-8 174c40 0 45-34 45-75 0-40-5-75-45-74-42 0-51 32-51 76 0 43 10 73 51 73" id="W"/><g id="g"><use transform="matrix(0.04938271604938272,0,0,0.04938271604938272,0,0)" xlink:href="#T"/><use transform="matrix(0.04938271604938272,0,0,0.04938271604938272,12.790123456790125,0)" xlink:href="#U"/><use transform="matrix(0.04938271604938272,0,0,0.04938271604938272,22.66666666666667,0)" xlink:href="#K"/><use transform="matrix(0.04938271604938272,0,0,0.04938271604938272,31.555555555555557,0)" xlink:href="#V"/><use transform="matrix(0.04938271604938272,0,0,0.04938271604938272,41.4320987654321,0)" xlink:href="#W"/><use transform="matrix(0.04938271604938272,0,0,0.04938271604938272,51.308641975308646,0)" xlink:href="#C"/><use transform="matrix(0.04938271604938272,0,0,0.04938271604938272,61.18518518518519,0)" xlink:href="#U"/><use transform="matrix(0.04938271604938272,0,0,0.04938271604938272,71.06172839506173,0)" xlink:href="#P"/><use transform="matrix(0.04938271604938272,0,0,0.04938271604938272,76.93827160493828,0)" xlink:href="#N"/></g><path fill="#333" d="M30-248c118-7 216 8 213 122C240-48 200 0 122 0H30v-248zM63-27c89 8 146-16 146-99s-60-101-146-95v194" id="X"/><path fill="#333" d="M141-36C126-15 110 5 73 4 37 3 15-17 15-53c-1-64 63-63 125-63 3-35-9-54-41-54-24 1-41 7-42 31l-33-3c5-37 33-52 76-52 45 0 72 20 72 64v82c-1 20 7 32 28 27v20c-31 9-61-2-59-35zM48-53c0 20 12 33 32 33 41-3 63-29 60-74-43 2-92-5-92 41" id="Y"/><path fill="#333" d="M135-143c-3-34-86-38-87 0 15 53 115 12 119 90S17 21 10-45l28-5c4 36 97 45 98 0-10-56-113-15-118-90-4-57 82-63 122-42 12 7 21 19 24 35" id="Z"/><path fill="#333" d="M106-169C34-169 62-67 57 0H25v-261h32l-1 103c12-21 28-36 61-36 89 0 53 116 60 194h-32v-121c2-32-8-49-39-48" id="aa"/><path fill="#333" d="M115-194c53 0 69 39 70 98 0 66-23 100-70 100C84 3 66-7 56-30L54 0H23l1-261h32v101c10-23 28-34 59-34zm-8 174c40 0 45-34 45-75 0-40-5-75-45-74-42 0-51 32-51 76 0 43 10 73 51 73" id="ab"/><path fill="#333" d="M100-194c62-1 85 37 85 99 1 63-27 99-86 99S16-35 15-95c0-66 28-99 85-99zM99-20c44 1 53-31 53-75 0-43-8-75-51-75s-53 32-53 75 10 74 51 75" id="ac"/><path fill="#333" d="M114-163C36-179 61-72 57 0H25l-1-190h30c1 12-1 29 2 39 6-27 23-49 58-41v29" id="ad"/><path fill="#333" d="M85-194c31 0 48 13 60 33l-1-100h32l1 261h-30c-2-10 0-23-3-31C134-8 116 4 85 4 32 4 16-35 15-94c0-66 23-100 70-100zm9 24c-40 0-46 34-46 75 0 40 6 74 45 74 42 0 51-32 51-76 0-42-9-74-50-73" id="ae"/><g id="h"><use transform="matrix(0.06790123456790124,0,0,0.06790123456790124,0,0)" xlink:href="#X"/><use transform="matrix(0.06790123456790124,0,0,0.06790123456790124,17.58641975308642,0)" xlink:href="#Y"/><use transform="matrix(0.06790123456790124,0,0,0.06790123456790124,31.16666666666667,0)" xlink:href="#Z"/><use transform="matrix(0.06790123456790124,0,0,0.06790123456790124,43.38888888888889,0)" xlink:href="#aa"/><use transform="matrix(0.06790123456790124,0,0,0.06790123456790124,56.96913580246914,0)" xlink:href="#ab"/><use transform="matrix(0.06790123456790124,0,0,0.06790123456790124,70.5493827160494,0)" xlink:href="#ac"/><use transform="matrix(0.06790123456790124,0,0,0.06790123456790124,84.12962962962965,0)" xlink:href="#Y"/><use transform="matrix(0.06790123456790124,0,0,0.06790123456790124,97.7098765432099,0)" xlink:href="#ad"/><use transform="matrix(0.06790123456790124,0,0,0.06790123456790124,105.79012345679016,0)" xlink:href="#ae"/></g><path fill="#333" d="M205 0l-28-72H64L36 0H1l101-248h38L239 0h-34zm-38-99l-47-123c-12 45-31 82-46 123h93" id="af"/><path fill="#333" d="M96-169c-40 0-48 33-48 73s9 75 48 75c24 0 41-14 43-38l32 2c-6 37-31 61-74 61-59 0-76-41-82-99-10-93 101-131 147-64 4 7 5 14 7 22l-32 3c-4-21-16-35-41-35" id="ag"/><path fill="#333" d="M59-47c-2 24 18 29 38 22v24C64 9 27 4 27-40v-127H5v-23h24l9-43h21v43h35v23H59v120" id="ah"/><path fill="#333" d="M24-231v-30h32v30H24zM24 0v-190h32V0H24" id="ai"/><path fill="#333" d="M117-194c89-4 53 116 60 194h-32v-121c0-31-8-49-39-48C34-167 62-67 57 0H25l-1-190h30c1 10-1 24 2 32 11-22 29-35 61-36" id="aj"/><g id="i"><use transform="matrix(0.06790123456790124,0,0,0.06790123456790124,0,0)" xlink:href="#af"/><use transform="matrix(0.06790123456790124,0,0,0.06790123456790124,16.296296296296298,0)" xlink:href="#ag"/><use transform="matrix(0.06790123456790124,0,0,0.06790123456790124,28.51851851851852,0)" xlink:href="#ah"/><use transform="matrix(0.06790123456790124,0,0,0.06790123456790124,35.308641975308646,0)" xlink:href="#ai"/><use transform="matrix(0.06790123456790124,0,0,0.06790123456790124,40.67283950617284,0)" xlink:href="#ac"/><use transform="matrix(0.06790123456790124,0,0,0.06790123456790124,54.25308641975309,0)" xlink:href="#aj"/><use transform="matrix(0.06790123456790124,0,0,0.06790123456790124,67.83333333333334,0)" xlink:href="#Z"/></g><g id="j"><use transform="matrix(0.04938271604938272,0,0,0.04938271604938272,0,0)" xlink:href="#A"/><use transform="matrix(0.04938271604938272,0,0,0.04938271604938272,11.851851851851853,0)" xlink:href="#N"/><use transform="matrix(0.04938271604938272,0,0,0.04938271604938272,21.7283950617284,0)" xlink:href="#N"/></g><path fill="#fff" d="M233-177c-1 41-23 64-60 70L243 0h-38l-65-103H63V0H30v-248c88 3 205-21 203 71zM63-129c60-2 137 13 137-47 0-61-80-42-137-45v92" id="ak"/><path fill="#fff" d="M210-169c-67 3-38 105-44 169h-31v-121c0-29-5-50-35-48C34-165 62-65 56 0H25l-1-190h30c1 10-1 24 2 32 10-44 99-50 107 0 11-21 27-35 58-36 85-2 47 119 55 194h-31v-121c0-29-5-49-35-48" id="al"/><path fill="#fff" d="M108 0H70L1-190h34L89-25l56-165h34" id="am"/><g id="k"><use transform="matrix(0.04938271604938272,0,0,0.04938271604938272,0,0)" xlink:href="#ak"/><use transform="matrix(0.04938271604938272,0,0,0.04938271604938272,12.790123456790125,0)" xlink:href="#S"/><use transform="matrix(0.04938271604938272,0,0,0.04938271604938272,22.66666666666667,0)" xlink:href="#al"/><use transform="matrix(0.04938271604938272,0,0,0.04938271604938272,37.4320987654321,0)" xlink:href="#C"/><use transform="matrix(0.04938271604938272,0,0,0.04938271604938272,47.308641975308646,0)" xlink:href="#am"/><use transform="matrix(0.04938271604938272,0,0,0.04938271604938272,56.19753086419754,0)" xlink:href="#S"/></g><path fill="#fff" d="M212-179c-10-28-35-45-73-45-59 0-87 40-87 99 0 60 29 101 89 101 43 0 62-24 78-52l27 14C228-24 195 4 139 4 59 4 22-46 18-125c-6-104 99-153 187-111 19 9 31 26 39 46" id="an"/><g id="l"><use transform="matrix(0.04938271604938272,0,0,0.04938271604938272,0,0)" xlink:href="#an"/><use transform="matrix(0.04938271604938272,0,0,0.04938271604938272,12.790123456790125,0)" xlink:href="#C"/><use transform="matrix(0.04938271604938272,0,0,0.04938271604938272,22.66666666666667,0)" xlink:href="#E"/><use transform="matrix(0.04938271604938272,0,0,0.04938271604938272,32.543209876543216,0)" xlink:href="#E"/><use transform="matrix(0.04938271604938272,0,0,0.04938271604938272,42.41975308641976,0)" xlink:href="#S"/><use transform="matrix(0.04938271604938272,0,0,0.04938271604938272,52.2962962962963,0)" xlink:href="#B"/><use transform="matrix(0.04938271604938272,0,0,0.04938271604938272,61.18518518518519,0)" xlink:href="#F"/><use transform="matrix(0.04938271604938272,0,0,0.04938271604938272,66.12345679012347,0)" xlink:href="#J"/><use transform="matrix(0.04938271604938272,0,0,0.04938271604938272,70.02469135802471,0)" xlink:href="#C"/><use transform="matrix(0.04938271604938272,0,0,0.04938271604938272,79.90123456790126,0)" xlink:href="#E"/><use transform="matrix(0.04938271604938272,0,0,0.04938271604938272,89.7777777777778,0)" xlink:href="#K"/></g><path fill="#333" d="M266 0h-40l-56-210L115 0H75L2-248h35L96-30l15-64 43-154h32l59 218 59-218h35" id="ao"/><g id="m"><use transform="matrix(0.04938271604938272,0,0,0.04938271604938272,0,0)" xlink:href="#ao"/><use transform="matrix(0.04938271604938272,0,0,0.04938271604938272,16.74074074074074,0)" xlink:href="#aa"/><use transform="matrix(0.04938271604938272,0,0,0.04938271604938272,26.617283950617285,0)" xlink:href="#ai"/><use transform="matrix(0.04938271604938272,0,0,0.04938271604938272,30.518518518518523,0)" xlink:href="#ag"/><use transform="matrix(0.04938271604938272,0,0,0.04938271604938272,39.407407407407405,0)" xlink:href="#aa"/></g><path fill="#333" d="M100-194c63 0 86 42 84 106H49c0 40 14 67 53 68 26 1 43-12 49-29l28 8c-11 28-37 45-77 45C44 4 14-33 15-96c1-61 26-98 85-98zm52 81c6-60-76-77-97-28-3 7-6 17-6 28h103" id="ap"/><path fill="#333" d="M108 0H70L1-190h34L89-25l56-165h34" id="aq"/><path fill="#333" d="M103-251c84 0 111 97 45 133-19 10-37 24-39 52H78c0-63 77-55 77-114 0-30-21-42-52-43-32 0-53 17-56 46l-32-2c7-45 34-72 88-72zM77 0v-35h34V0H77" id="ar"/><g id="n"><use transform="matrix(0.04938271604938272,0,0,0.04938271604938272,0,0)" xlink:href="#Z"/><use transform="matrix(0.04938271604938272,0,0,0.04938271604938272,8.88888888888889,0)" xlink:href="#ap"/><use transform="matrix(0.04938271604938272,0,0,0.04938271604938272,18.765432098765434,0)" xlink:href="#ad"/><use transform="matrix(0.04938271604938272,0,0,0.04938271604938272,24.641975308641978,0)" xlink:href="#aq"/><use transform="matrix(0.04938271604938272,0,0,0.04938271604938272,33.53086419753087,0)" xlink:href="#ai"/><use transform="matrix(0.04938271604938272,0,0,0.04938271604938272,37.4320987654321,0)" xlink:href="#ag"/><use transform="matrix(0.04938271604938272,0,0,0.04938271604938272,46.32098765432099,0)" xlink:href="#ap"/><use transform="matrix(0.04938271604938272,0,0,0.04938271604938272,56.19753086419754,0)" xlink:href="#ar"/></g><g id="o"><use transform="matrix(0.04938271604938272,0,0,0.04938271604938272,0,0)" xlink:href="#ao"/><use transform="matrix(0.04938271604938272,0,0,0.04938271604938272,16.74074074074074,0)" xlink:href="#aa"/><use transform="matrix(0.04938271604938272,0,0,0.04938271604938272,26.617283950617285,0)" xlink:href="#Y"/><use transform="matrix(0.04938271604938272,0,0,0.04938271604938272,36.49382716049383,0)" xlink:href="#ah"/></g><path fill="#333" d="M143 0L79-87 56-68V0H24v-261h32v163l83-92h37l-77 82L181 0h-38" id="as"/><g id="p"><use transform="matrix(0.04938271604938272,0,0,0.04938271604938272,0,0)" xlink:href="#as"/><use transform="matrix(0.04938271604938272,0,0,0.04938271604938272,8.88888888888889,0)" xlink:href="#ai"/><use transform="matrix(0.04938271604938272,0,0,0.04938271604938272,12.790123456790125,0)" xlink:href="#aj"/><use transform="matrix(0.04938271604938272,0,0,0.04938271604938272,22.666666666666668,0)" xlink:href="#ae"/></g><path fill="#333" d="M101-234c-31-9-42 10-38 44h38v23H63V0H32v-167H5v-23h27c-7-52 17-82 69-68v24" id="at"/><g id="q"><use transform="matrix(0.04938271604938272,0,0,0.04938271604938272,0,0)" xlink:href="#ac"/><use transform="matrix(0.04938271604938272,0,0,0.04938271604938272,9.876543209876544,0)" xlink:href="#at"/></g><g id="r"><use transform="matrix(0.04938271604938272,0,0,0.04938271604938272,0,0)" xlink:href="#ae"/><use transform="matrix(0.04938271604938272,0,0,0.04938271604938272,9.876543209876544,0)" xlink:href="#Y"/><use transform="matrix(0.04938271604938272,0,0,0.04938271604938272,19.75308641975309,0)" xlink:href="#ah"/><use transform="matrix(0.04938271604938272,0,0,0.04938271604938272,24.69135802469136,0)" xlink:href="#Y"/><use transform="matrix(0.04938271604938272,0,0,0.04938271604938272,34.567901234567906,0)" xlink:href="#ar"/></g><path fill="#333" d="M63-220v92h138v28H63V0H30v-248h175v28H63" id="au"/><g id="s"><use transform="matrix(0.04938271604938272,0,0,0.04938271604938272,0,0)" xlink:href="#au"/><use transform="matrix(0.04938271604938272,0,0,0.04938271604938272,10.814814814814815,0)" xlink:href="#ac"/><use transform="matrix(0.04938271604938272,0,0,0.04938271604938272,20.69135802469136,0)" xlink:href="#ad"/></g><path fill="#333" d="M206 0h-36l-40-164L89 0H53L-1-190h32L70-26l43-164h34l41 164 42-164h31" id="av"/><g id="t"><use transform="matrix(0.04938271604938272,0,0,0.04938271604938272,0,0)" xlink:href="#aa"/><use transform="matrix(0.04938271604938272,0,0,0.04938271604938272,9.876543209876544,0)" xlink:href="#ac"/><use transform="matrix(0.04938271604938272,0,0,0.04938271604938272,19.75308641975309,0)" xlink:href="#av"/></g><path fill="#333" d="M24 0v-261h32V0H24" id="aw"/><path fill="#333" d="M177-190C167-65 218 103 67 71c-23-6-38-20-44-43l32-5c15 47 100 32 89-28v-30C133-14 115 1 83 1 29 1 15-40 15-95c0-56 16-97 71-98 29-1 48 16 59 35 1-10 0-23 2-32h30zM94-22c36 0 50-32 50-73 0-42-14-75-50-75-39 0-46 34-46 75s6 73 46 73" id="ax"/><g id="u"><use transform="matrix(0.04938271604938272,0,0,0.04938271604938272,0,0)" xlink:href="#aw"/><use transform="matrix(0.04938271604938272,0,0,0.04938271604938272,3.901234567901235,0)" xlink:href="#ac"/><use transform="matrix(0.04938271604938272,0,0,0.04938271604938272,13.777777777777779,0)" xlink:href="#aj"/><use transform="matrix(0.04938271604938272,0,0,0.04938271604938272,23.654320987654323,0)" xlink:href="#ax"/><use transform="matrix(0.04938271604938272,0,0,0.04938271604938272,33.53086419753087,0)" xlink:href="#ar"/></g><path fill="#333" d="M210-169c-67 3-38 105-44 169h-31v-121c0-29-5-50-35-48C34-165 62-65 56 0H25l-1-190h30c1 10-1 24 2 32 10-44 99-50 107 0 11-21 27-35 58-36 85-2 47 119 55 194h-31v-121c0-29-5-49-35-48" id="ay"/><path fill="#333" d="M84 4C-5 8 30-112 23-190h32v120c0 31 7 50 39 49 72-2 45-101 50-169h31l1 190h-30c-1-10 1-25-2-33-11 22-28 36-60 37" id="az"/><g id="v"><use transform="matrix(0.04938271604938272,0,0,0.04938271604938272,0,0)" xlink:href="#ay"/><use transform="matrix(0.04938271604938272,0,0,0.04938271604938272,14.765432098765434,0)" xlink:href="#az"/><use transform="matrix(0.04938271604938272,0,0,0.04938271604938272,24.641975308641978,0)" xlink:href="#ag"/><use transform="matrix(0.04938271604938272,0,0,0.04938271604938272,33.53086419753087,0)" xlink:href="#aa"/><use transform="matrix(0.04938271604938272,0,0,0.04938271604938272,43.40740740740741,0)" xlink:href="#ar"/></g><g id="w"><use transform="matrix(0.04938271604938272,0,0,0.04938271604938272,0,0)" xlink:href="#af"/><use transform="matrix(0.04938271604938272,0,0,0.04938271604938272,11.851851851851853,0)" xlink:href="#az"/><use transform="matrix(0.04938271604938272,0,0,0.04938271604938272,21.7283950617284,0)" xlink:href="#ah"/><use transform="matrix(0.04938271604938272,0,0,0.04938271604938272,26.666666666666668,0)" xlink:href="#aa"/><use transform="matrix(0.04938271604938272,0,0,0.04938271604938272,36.543209876543216,0)" xlink:href="#ap"/><use transform="matrix(0.04938271604938272,0,0,0.04938271604938272,46.41975308641976,0)" xlink:href="#aj"/><use transform="matrix(0.04938271604938272,0,0,0.04938271604938272,56.2962962962963,0)" xlink:href="#ah"/><use transform="matrix(0.04938271604938272,0,0,0.04938271604938272,61.23456790123457,0)" xlink:href="#ai"/><use transform="matrix(0.04938271604938272,0,0,0.04938271604938272,65.13580246913581,0)" xlink:href="#ag"/><use transform="matrix(0.04938271604938272,0,0,0.04938271604938272,74.0246913580247,0)" xlink:href="#Y"/><use transform="matrix(0.04938271604938272,0,0,0.04938271604938272,83.90123456790124,0)" xlink:href="#ah"/><use transform="matrix(0.04938271604938272,0,0,0.04938271604938272,88.83950617283952,0)" xlink:href="#ap"/></g><path fill="#333" d="M185-189c-5-48-123-54-124 2 14 75 158 14 163 119 3 78-121 87-175 55-17-10-28-26-33-46l33-7c5 56 141 63 141-1 0-78-155-14-162-118-5-82 145-84 179-34 5 7 8 16 11 25" id="aA"/><g id="x"><use transform="matrix(0.04938271604938272,0,0,0.04938271604938272,0,0)" xlink:href="#aA"/><use transform="matrix(0.04938271604938272,0,0,0.04938271604938272,11.851851851851853,0)" xlink:href="#ap"/><use transform="matrix(0.04938271604938272,0,0,0.04938271604938272,21.7283950617284,0)" xlink:href="#ad"/><use transform="matrix(0.04938271604938272,0,0,0.04938271604938272,27.604938271604947,0)" xlink:href="#aq"/><use transform="matrix(0.04938271604938272,0,0,0.04938271604938272,36.49382716049384,0)" xlink:href="#ai"/><use transform="matrix(0.04938271604938272,0,0,0.04938271604938272,40.39506172839507,0)" xlink:href="#ag"/><use transform="matrix(0.04938271604938272,0,0,0.04938271604938272,49.28395061728396,0)" xlink:href="#ap"/></g><path fill="#fff" d="M185-189c-5-48-123-54-124 2 14 75 158 14 163 119 3 78-121 87-175 55-17-10-28-26-33-46l33-7c5 56 141 63 141-1 0-78-155-14-162-118-5-82 145-84 179-34 5 7 8 16 11 25" id="aB"/><g id="y"><use transform="matrix(0.04938271604938272,0,0,0.04938271604938272,0,0)" xlink:href="#aB"/><use transform="matrix(0.04938271604938272,0,0,0.04938271604938272,11.851851851851853,0)" xlink:href="#S"/><use transform="matrix(0.04938271604938272,0,0,0.04938271604938272,21.7283950617284,0)" xlink:href="#F"/><use transform="matrix(0.04938271604938272,0,0,0.04938271604938272,26.666666666666668,0)" xlink:href="#F"/><use transform="matrix(0.04938271604938272,0,0,0.04938271604938272,31.60493827160494,0)" xlink:href="#J"/><use transform="matrix(0.04938271604938272,0,0,0.04938271604938272,35.50617283950618,0)" xlink:href="#E"/><use transform="matrix(0.04938271604938272,0,0,0.04938271604938272,45.38271604938272,0)" xlink:href="#L"/><use transform="matrix(0.04938271604938272,0,0,0.04938271604938272,55.25925925925927,0)" xlink:href="#K"/></g><path fill="#fff" d="M197 0v-115H63V0H30v-248h33v105h134v-105h34V0h-34" id="aC"/><path fill="#fff" d="M115-194c55 1 70 41 70 98S169 2 115 4C84 4 66-9 55-30l1 105H24l-1-265h31l2 30c10-21 28-34 59-34zm-8 174c40 0 45-34 45-75s-6-73-45-74c-42 0-51 32-51 76 0 43 10 73 51 73" id="aD"/><g id="z"><use transform="matrix(0.04938271604938272,0,0,0.04938271604938272,0,0)" xlink:href="#aC"/><use transform="matrix(0.04938271604938272,0,0,0.04938271604938272,12.790123456790125,0)" xlink:href="#S"/><use transform="matrix(0.04938271604938272,0,0,0.04938271604938272,22.66666666666667,0)" xlink:href="#R"/><use transform="matrix(0.04938271604938272,0,0,0.04938271604938272,26.567901234567902,0)" xlink:href="#aD"/></g></defs></g></svg>