<svg xmlns="http://www.w3.org/2000/svg" xmlns:xlink="http://www.w3.org/1999/xlink" xmlns:lucid="lucid" width="963" height="1268"><g transform="translate(-541 -177)" lucid:page-tab-id="0_0"><path d="M1450 200c16.57 0 30 13.43 30 30v1160c0 16.57-13.43 30-30 30H590c-16.57 0-30-13.43-30-30V230c0-16.57 13.43-30 30-30z" stroke="#b2b2b2" stroke-width="2" fill-opacity="0"/><path d="M944.14 240c13.26 0 24 13.43 24 30s-10.74 30-24 30h-72c-13.25 0-24-13.43-24-30s10.75-30 24-30z" stroke="#000" stroke-opacity="0" fill="#323580"/><use xlink:href="#a" transform="matrix(1,0,0,1,853.4112585523475,245.269) translate(20.481481481481474 20.860222222222223)"/><use xlink:href="#b" transform="matrix(1,0,0,1,853.4112585523475,245.269) translate(55.04938271604938 20.860222222222223)"/><use xlink:href="#c" transform="matrix(1,0,0,1,853.4112585523475,245.269) translate(73.76543209876544 20.860222222222223)"/><use xlink:href="#d" transform="matrix(1,0,0,1,853.4112585523475,245.269) translate(26.382716049382715 42.193555555555555)"/><use xlink:href="#e" transform="matrix(1,0,0,1,853.4112585523475,245.269) translate(63.8641975308642 42.193555555555555)"/><path d="M901.74 366.8c3.54-2.65 9.27-2.65 12.8 0l67.2 50.4c3.54 2.65 3.54 6.95 0 9.6l-67.2 50.4c-3.53 2.65-9.26 2.65-12.8 0l-67.2-50.4c-3.53-2.65-3.53-6.95 0-9.6z" stroke="#323580" stroke-width="4" fill="#fff"/><use xlink:href="#f" transform="matrix(1,0,0,1,833.4112585523475,367.269) translate(44.43092592592592 48.67272222222222)"/><use xlink:href="#g" transform="matrix(1,0,0,1,833.4112585523475,367.269) translate(31.072901234567897 70.00605555555556)"/><use xlink:href="#h" transform="matrix(1,0,0,1,833.4112585523475,367.269) translate(88.30746913580248 70.00605555555556)"/><path d="M580 222.9h240v60H580z" stroke="#000" stroke-opacity="0" stroke-width="2" fill="#fff" fill-opacity="0"/><use xlink:href="#i" transform="matrix(1,0,0,1,585,227.90418721895355) translate(28.18827160493825 28.930555555555557)"/><use xlink:href="#j" transform="matrix(1,0,0,1,585,227.90418721895355) translate(94.66358024691357 28.930555555555557)"/><use xlink:href="#k" transform="matrix(1,0,0,1,585,227.90418721895355) translate(123.11419753086419 28.930555555555557)"/><use xlink:href="#l" transform="matrix(1,0,0,1,585,227.90418721895355) translate(174.65123456790124 28.930555555555557)"/><path d="M908.14 300.5v46.03" stroke="#333" fill="none"/><path d="M908.64 300.5h-1v-.5h1z" fill="#333"/><path d="M908.14 361.3l-4.63-14.27h9.28z" stroke="#333" fill="#333"/><path d="M791.98 422.5l-2.96.4-2.76 1.14-2.4 1.83-1.82 2.4-1.14 2.75-.4 3v357.7l.4 3.02 1.14 2.75 1.83 2.38 2.4 1.84 2.75 1.14 3 .4h39.74v1h-39.8l-3.2-.43-3-1.24-2.6-2-2-2.6-1.24-3-.42-3.2V433.96l.42-3.2 1.24-3 2-2.6 2.6-2 3-1.25 3.2-.42h.02zm37.52 0h-6.4v-1h6.4z" fill="#333"/><path d="M829.98 422.5h-.5v-1h.54zM846.52 803.75l-14.26 4.64v-9.28z" fill="#333"/><path d="M848.14 803.75l-16.38 5.33v-10.65zm-15.38 3.95l12.15-3.95-12.14-3.94z" fill="#333"/><use xlink:href="#m" transform="matrix(1,0,0,1,791.9841875197832,412.6666666666667) translate(0 12.444444444444446)"/><path d="M1031.24 421.92l3 1.24 2.6 2 2 2.6 1.24 3 .42 3.2v84.63h-1v-84.57l-.4-3-1.14-2.77-1.83-2.4-2.4-1.82-2.75-1.14-3-.4h-3.5v-1h3.55zm-44.46.58v-1h14.4v1z" fill="#333"/><path d="M986.8 422.5h-.54l.05-1h.5zM1040 533.36l-4.64-14.27h9.28z" fill="#333"/><path d="M1040 534.97l-5.32-16.38h10.64zm-3.95-15.38l3.95 12.14 3.95-12.15z" fill="#333"/><use xlink:href="#n" transform="matrix(1,0,0,1,1001.1845137081406,412.6666666666667) translate(0 12.444444444444446)"/><path d="M980 542.97c0-4.4 3.58-8 8-8h104c4.42 0 8 3.6 8 8v62.06c0 4.4-3.58 8-8 8H988c-4.42 0-8-3.6-8-8z" stroke="#000" stroke-opacity="0" fill="#4247a8"/><use xlink:href="#o" transform="matrix(1,0,0,1,985.269,540.2435) translate(33.79012345679012 26.235222222222223)"/><use xlink:href="#p" transform="matrix(1,0,0,1,985.269,540.2435) translate(32.80246913580247 47.568555555555555)"/><path d="M980 670c0-4.42 3.58-8 8-8h104c4.42 0 8 3.58 8 8v44c0 4.42-3.58 8-8 8H988c-4.42 0-8-3.58-8-8z" stroke="#000" stroke-opacity="0" fill="#4247a8"/><use xlink:href="#o" transform="matrix(1,0,0,1,985.269,667.269) translate(33.79012345679012 20.860222222222223)"/><use xlink:href="#q" transform="matrix(1,0,0,1,985.269,667.269) translate(30.30864197530864 42.193555555555555)"/><path d="M848.14 772.73c0-4.42 3.58-8 8-8h104c4.42 0 8 3.58 8 8v62.05c0 4.42-3.58 8-8 8h-104c-4.42 0-8-3.58-8-8z" stroke="#000" stroke-opacity="0" fill="#5358d3"/><use xlink:href="#r" transform="matrix(1,0,0,1,853.4112585523475,769.9976660340286) translate(33.79012345679012 17.735222222222223)"/><use xlink:href="#s" transform="matrix(1,0,0,1,853.4112585523475,769.9976660340286) translate(33.839506172839506 39.068555555555555)"/><use xlink:href="#t" transform="matrix(1,0,0,1,853.4112585523475,769.9976660340286) translate(23.419753086419753 60.40188888888889)"/><path d="M848.14 910c0-4.42 3.58-8 8-8h104c4.42 0 8 3.58 8 8v44c0 4.42-3.58 8-8 8h-104c-4.42 0-8-3.58-8-8z" stroke="#000" stroke-opacity="0" fill="#5358d3"/><use xlink:href="#r" transform="matrix(1,0,0,1,853.4112585523475,907.269) translate(33.79012345679012 20.860222222222223)"/><use xlink:href="#u" transform="matrix(1,0,0,1,853.4112585523475,907.269) translate(17.02469135802469 42.193555555555555)"/><path d="M1040 722.5v69.25c0 6.63-5.37 12-12 12h-43.47" stroke="#333" fill="none"/><path d="M1040.5 722.5h-1v-.5h1z" fill="#333"/><path d="M969.76 803.75l14.27-4.63v9.27z" stroke="#333" fill="#333"/><path d="M908.14 843.28v42.34" stroke="#333" fill="none"/><path d="M908.64 843.3h-1v-.52h1z" fill="#333"/><path d="M908.14 900.38l-4.63-14.26h9.28z" stroke="#333" fill="#333"/><path d="M1040 613.53v32.1" stroke="#333" fill="none"/><path d="M1040.5 613.54h-1v-.5h1z" fill="#333"/><path d="M1040 660.38l-4.64-14.26h9.28z" stroke="#333" fill="#333"/><path d="M901.74 1044.8c3.54-2.65 9.27-2.65 12.8 0l67.2 50.4c3.54 2.65 3.54 6.95 0 9.6l-67.2 50.4c-3.53 2.65-9.26 2.65-12.8 0l-67.2-50.4c-3.53-2.65-3.53-6.95 0-9.6z" stroke="#323580" stroke-width="4" fill="#fff"/><use xlink:href="#v" transform="matrix(1,0,0,1,833.4112585523475,1045.269) translate(23.691358024691354 58.98522222222222)"/><path d="M908.14 962.5v62.03" stroke="#333" fill="none"/><path d="M908.64 962.5h-1v-.5h1z" fill="#333"/><path d="M908.14 1039.3l-4.63-14.27h9.28z" stroke="#333" fill="#333"/><path d="M908.64 1221.62h-1v-12.28h1zm0-33.88h-1v-28.15h1z" fill="#333"/><path d="M908.64 1159.1v.5h-1v-.52zM908.14 1236.38l-4.63-14.26h9.28z" fill="#333"/><path d="M908.14 1238l-5.32-16.38h10.65zm-3.94-15.38l3.94 12.14 3.95-12.14z" fill="#333"/><use xlink:href="#w" transform="matrix(1,0,0,1,896.6672585523474,1187.7431935842346) translate(0.005000000000000782 14.4)"/><path d="M848.14 1246c0-4.42 3.58-8 8-8h104c4.42 0 8 3.58 8 8v44c0 4.42-3.58 8-8 8h-104c-4.42 0-8-3.58-8-8z" stroke="#000" stroke-opacity="0" fill="#636aff"/><use xlink:href="#x" transform="matrix(1,0,0,1,853.4112585523475,1243.269) translate(11.592592592592586 30.312055555555553)"/><path d="M1018.47 1100.5h-31.7v-1h31.7zm45.15 0h-15.8v-1h15.8z" fill="#333"/><path d="M986.8 1100.5h-.54l.05-1h.5zM1078.38 1100l-14.26 4.64v-9.28z" fill="#333"/><path d="M1080 1100l-16.38 5.32v-10.64zm-15.38 3.95l12.14-3.95-12.14-3.95z" fill="#333"/><use xlink:href="#y" transform="matrix(1,0,0,1,1018.467258646124,1089.2) translate(0.005000000000000782 14.4)"/><path d="M1080 1071.47c0-4.4 3.58-8 8-8h124c4.42 0 8 3.6 8 8v57.06c0 4.4-3.58 8-8 8h-124c-4.42 0-8-3.6-8-8z" stroke="#000" stroke-opacity="0" fill="#5358d3"/><use xlink:href="#z" transform="matrix(1,0,0,1,1085.269,1068.7435) translate(48.72839506172839 25.610222222222223)"/><use xlink:href="#A" transform="matrix(1,0,0,1,1085.269,1068.7435) translate(12.679012345679004 46.943555555555555)"/><use xlink:href="#B" transform="matrix(1,0,0,1,1085.269,1068.7435) translate(87.69135802469137 46.943555555555555)"/><path d="M1333.98 1035.27c3.32-2.9 8.72-2.9 12.04 0l67.96 59.46c3.32 2.9 3.32 7.63 0 10.54l-67.96 59.46c-3.32 2.9-8.72 2.9-12.04 0l-67.96-59.46c-3.32-2.9-3.32-7.63 0-10.54z" stroke="#323580" stroke-width="4" fill="#fff"/><g><use xlink:href="#C" transform="matrix(1,0,0,1,1265.269,1035.269) translate(40.949444444444445 46.17272222222222)"/><use xlink:href="#D" transform="matrix(1,0,0,1,1265.269,1035.269) translate(93.24574074074074 46.17272222222222)"/><use xlink:href="#E" transform="matrix(1,0,0,1,1265.269,1035.269) translate(41.000000000000014 67.50605555555556)"/><use xlink:href="#F" transform="matrix(1,0,0,1,1265.269,1035.269) translate(94.18518518518519 67.50605555555556)"/><use xlink:href="#G" transform="matrix(1,0,0,1,1265.269,1035.269) translate(44.92475308641974 88.83938888888889)"/></g><path d="M1220.5 1100h24.68" stroke="#333" fill="none"/><path d="M1220.5 1100.5h-.5v-1h.5z" fill="#333"/><path d="M1259.95 1100l-14.27 4.64v-9.28z" stroke="#333" fill="#333"/><path d="M1188.97 1268.5H984.53v-1h204.44zm151.53-12.47l-.42 3.2-1.24 3-2 2.6-2.6 2-3 1.25-3.2.42H1218.3v-1h109.65l3-.4 2.77-1.14 2.4-1.83 1.82-2.4 1.14-2.75.4-3v-86.63h1z" fill="#333"/><path d="M1340.5 1169.37h-1v-.48l1-.08zM984.03 1272.64l-14.27-4.64 14.27-4.64z" fill="#333"/><path d="M984.53 1273.32l-16.4-5.32 16.4-5.32zm-13.15-5.32l12.15 3.95v-7.9z" fill="#333"/><g><use xlink:href="#y" transform="matrix(1,0,0,1,1188.9687080035771,1257.2) translate(0.005000000000000782 14.4)"/></g><path d="M1458.93 1003.1v84.93l-.42 3.2-1.23 3-2 2.6-2.6 2-3 1.25-3.2.42h-27.54v-1h27.47l3.02-.4 2.75-1.14 2.4-1.83 1.83-2.4 1.14-2.75.4-3v-84.8l-.17-1.23h1zm-16.76-11.45h-90.14l-3 .4-2.77 1.13-2.4 1.84-1.82 2.4-1.14 2.74-.4 3.02v11.58h-1v-11.65l.42-3.2 1.24-3 2-2.6 2.6-2 3-1.23 3.2-.42h90.2z" fill="#333"/><path d="M1418.95 1100.5h-.55l.07-1h.48zM1340 1029.53l-4.64-14.27h9.28z" fill="#333"/><path d="M1340 1031.15l-5.32-16.4h10.64zm-3.95-15.4l3.95 12.16 3.95-12.14z" fill="#333"/><g><use xlink:href="#w" transform="matrix(1,0,0,1,1442.169743713081,980.3451574548067) translate(0.005000000000000782 14.4)"/></g><defs><path fill="#fff" d="M30 0v-248h33v221h125V0H30" id="H"/><path fill="#fff" d="M100-194c62-1 85 37 85 99 1 63-27 99-86 99S16-35 15-95c0-66 28-99 85-99zM99-20c44 1 53-31 53-75 0-43-8-75-51-75s-53 32-53 75 10 74 51 75" id="I"/><path fill="#fff" d="M177-190C167-65 218 103 67 71c-23-6-38-20-44-43l32-5c15 47 100 32 89-28v-30C133-14 115 1 83 1 29 1 15-40 15-95c0-56 16-97 71-98 29-1 48 16 59 35 1-10 0-23 2-32h30zM94-22c36 0 50-32 50-73 0-42-14-75-50-75-39 0-46 34-46 75s6 73 46 73" id="J"/><g id="a"><use transform="matrix(0.04938271604938272,0,0,0.04938271604938272,0,0)" xlink:href="#H"/><use transform="matrix(0.04938271604938272,0,0,0.04938271604938272,9.876543209876544,0)" xlink:href="#I"/><use transform="matrix(0.04938271604938272,0,0,0.04938271604938272,19.75308641975309,0)" xlink:href="#J"/></g><path fill="#fff" d="M24-231v-30h32v30H24zM24 0v-190h32V0H24" id="K"/><path fill="#fff" d="M117-194c89-4 53 116 60 194h-32v-121c0-31-8-49-39-48C34-167 62-67 57 0H25l-1-190h30c1 10-1 24 2 32 11-22 29-35 61-36" id="L"/><g id="b"><use transform="matrix(0.04938271604938272,0,0,0.04938271604938272,0,0)" xlink:href="#K"/><use transform="matrix(0.04938271604938272,0,0,0.04938271604938272,3.901234567901235,0)" xlink:href="#L"/></g><path fill="#fff" d="M114-163C36-179 61-72 57 0H25l-1-190h30c1 12-1 29 2 39 6-27 23-49 58-41v29" id="M"/><g id="c"><use transform="matrix(0.04938271604938272,0,0,0.04938271604938272,0,0)" xlink:href="#I"/><use transform="matrix(0.04938271604938272,0,0,0.04938271604938272,9.876543209876544,0)" xlink:href="#M"/></g><path fill="#fff" d="M135-143c-3-34-86-38-87 0 15 53 115 12 119 90S17 21 10-45l28-5c4 36 97 45 98 0-10-56-113-15-118-90-4-57 82-63 122-42 12 7 21 19 24 35" id="N"/><g id="d"><use transform="matrix(0.04938271604938272,0,0,0.04938271604938272,0,0)" xlink:href="#N"/><use transform="matrix(0.04938271604938272,0,0,0.04938271604938272,8.88888888888889,0)" xlink:href="#K"/><use transform="matrix(0.04938271604938272,0,0,0.04938271604938272,12.790123456790125,0)" xlink:href="#J"/><use transform="matrix(0.04938271604938272,0,0,0.04938271604938272,22.666666666666668,0)" xlink:href="#L"/></g><path fill="#fff" d="M84 4C-5 8 30-112 23-190h32v120c0 31 7 50 39 49 72-2 45-101 50-169h31l1 190h-30c-1-10 1-25-2-33-11 22-28 36-60 37" id="O"/><path fill="#fff" d="M115-194c55 1 70 41 70 98S169 2 115 4C84 4 66-9 55-30l1 105H24l-1-265h31l2 30c10-21 28-34 59-34zm-8 174c40 0 45-34 45-75s-6-73-45-74c-42 0-51 32-51 76 0 43 10 73 51 73" id="P"/><g id="e"><use transform="matrix(0.04938271604938272,0,0,0.04938271604938272,0,0)" xlink:href="#O"/><use transform="matrix(0.04938271604938272,0,0,0.04938271604938272,9.876543209876544,0)" xlink:href="#P"/></g><path fill="#333" d="M205 0l-28-72H64L36 0H1l101-248h38L239 0h-34zm-38-99l-47-123c-12 45-31 82-46 123h93" id="Q"/><path fill="#333" d="M24 0v-261h32V0H24" id="R"/><path fill="#333" d="M114-163C36-179 61-72 57 0H25l-1-190h30c1 12-1 29 2 39 6-27 23-49 58-41v29" id="S"/><path fill="#333" d="M100-194c63 0 86 42 84 106H49c0 40 14 67 53 68 26 1 43-12 49-29l28 8c-11 28-37 45-77 45C44 4 14-33 15-96c1-61 26-98 85-98zm52 81c6-60-76-77-97-28-3 7-6 17-6 28h103" id="T"/><path fill="#333" d="M141-36C126-15 110 5 73 4 37 3 15-17 15-53c-1-64 63-63 125-63 3-35-9-54-41-54-24 1-41 7-42 31l-33-3c5-37 33-52 76-52 45 0 72 20 72 64v82c-1 20 7 32 28 27v20c-31 9-61-2-59-35zM48-53c0 20 12 33 32 33 41-3 63-29 60-74-43 2-92-5-92 41" id="U"/><path fill="#333" d="M85-194c31 0 48 13 60 33l-1-100h32l1 261h-30c-2-10 0-23-3-31C134-8 116 4 85 4 32 4 16-35 15-94c0-66 23-100 70-100zm9 24c-40 0-46 34-46 75 0 40 6 74 45 74 42 0 51-32 51-76 0-42-9-74-50-73" id="V"/><path fill="#333" d="M179-190L93 31C79 59 56 82 12 73V49c39 6 53-20 64-50L1-190h34L92-34l54-156h33" id="W"/><g id="f"><use transform="matrix(0.04938271604938272,0,0,0.04938271604938272,0,0)" xlink:href="#Q"/><use transform="matrix(0.04938271604938272,0,0,0.04938271604938272,11.851851851851853,0)" xlink:href="#R"/><use transform="matrix(0.04938271604938272,0,0,0.04938271604938272,15.753086419753087,0)" xlink:href="#S"/><use transform="matrix(0.04938271604938272,0,0,0.04938271604938272,21.629629629629633,0)" xlink:href="#T"/><use transform="matrix(0.04938271604938272,0,0,0.04938271604938272,31.506172839506174,0)" xlink:href="#U"/><use transform="matrix(0.04938271604938272,0,0,0.04938271604938272,41.38271604938272,0)" xlink:href="#V"/><use transform="matrix(0.04938271604938272,0,0,0.04938271604938272,51.25925925925927,0)" xlink:href="#W"/></g><path fill="#333" d="M135-143c-3-34-86-38-87 0 15 53 115 12 119 90S17 21 10-45l28-5c4 36 97 45 98 0-10-56-113-15-118-90-4-57 82-63 122-42 12 7 21 19 24 35" id="X"/><path fill="#333" d="M24-231v-30h32v30H24zM24 0v-190h32V0H24" id="Y"/><path fill="#333" d="M177-190C167-65 218 103 67 71c-23-6-38-20-44-43l32-5c15 47 100 32 89-28v-30C133-14 115 1 83 1 29 1 15-40 15-95c0-56 16-97 71-98 29-1 48 16 59 35 1-10 0-23 2-32h30zM94-22c36 0 50-32 50-73 0-42-14-75-50-75-39 0-46 34-46 75s6 73 46 73" id="Z"/><path fill="#333" d="M117-194c89-4 53 116 60 194h-32v-121c0-31-8-49-39-48C34-167 62-67 57 0H25l-1-190h30c1 10-1 24 2 32 11-22 29-35 61-36" id="aa"/><g id="g"><use transform="matrix(0.04938271604938272,0,0,0.04938271604938272,0,0)" xlink:href="#X"/><use transform="matrix(0.04938271604938272,0,0,0.04938271604938272,8.88888888888889,0)" xlink:href="#Y"/><use transform="matrix(0.04938271604938272,0,0,0.04938271604938272,12.790123456790125,0)" xlink:href="#Z"/><use transform="matrix(0.04938271604938272,0,0,0.04938271604938272,22.666666666666668,0)" xlink:href="#aa"/><use transform="matrix(0.04938271604938272,0,0,0.04938271604938272,32.543209876543216,0)" xlink:href="#T"/><use transform="matrix(0.04938271604938272,0,0,0.04938271604938272,42.41975308641976,0)" xlink:href="#V"/></g><path fill="#333" d="M84 4C-5 8 30-112 23-190h32v120c0 31 7 50 39 49 72-2 45-101 50-169h31l1 190h-30c-1-10 1-25-2-33-11 22-28 36-60 37" id="ab"/><path fill="#333" d="M115-194c55 1 70 41 70 98S169 2 115 4C84 4 66-9 55-30l1 105H24l-1-265h31l2 30c10-21 28-34 59-34zm-8 174c40 0 45-34 45-75s-6-73-45-74c-42 0-51 32-51 76 0 43 10 73 51 73" id="ac"/><path fill="#333" d="M103-251c84 0 111 97 45 133-19 10-37 24-39 52H78c0-63 77-55 77-114 0-30-21-42-52-43-32 0-53 17-56 46l-32-2c7-45 34-72 88-72zM77 0v-35h34V0H77" id="ad"/><g id="h"><use transform="matrix(0.04938271604938272,0,0,0.04938271604938272,0,0)" xlink:href="#ab"/><use transform="matrix(0.04938271604938272,0,0,0.04938271604938272,9.876543209876544,0)" xlink:href="#ac"/><use transform="matrix(0.04938271604938272,0,0,0.04938271604938272,19.75308641975309,0)" xlink:href="#ad"/></g><path fill="#333" d="M30 0v-248h33v221h125V0H30" id="ae"/><path fill="#333" d="M100-194c62-1 85 37 85 99 1 63-27 99-86 99S16-35 15-95c0-66 28-99 85-99zM99-20c44 1 53-31 53-75 0-43-8-75-51-75s-53 32-53 75 10 74 51 75" id="af"/><g id="i"><use transform="matrix(0.06790123456790124,0,0,0.06790123456790124,0,0)" xlink:href="#ae"/><use transform="matrix(0.06790123456790124,0,0,0.06790123456790124,13.580246913580249,0)" xlink:href="#af"/><use transform="matrix(0.06790123456790124,0,0,0.06790123456790124,27.160493827160497,0)" xlink:href="#Z"/><use transform="matrix(0.06790123456790124,0,0,0.06790123456790124,40.74074074074075,0)" xlink:href="#Y"/><use transform="matrix(0.06790123456790124,0,0,0.06790123456790124,46.104938271604944,0)" xlink:href="#aa"/></g><g id="j"><use transform="matrix(0.06790123456790124,0,0,0.06790123456790124,0,0)" xlink:href="#af"/><use transform="matrix(0.06790123456790124,0,0,0.06790123456790124,13.580246913580249,0)" xlink:href="#S"/></g><g id="k"><use transform="matrix(0.06790123456790124,0,0,0.06790123456790124,0,0)" xlink:href="#X"/><use transform="matrix(0.06790123456790124,0,0,0.06790123456790124,12.222222222222223,0)" xlink:href="#Y"/><use transform="matrix(0.06790123456790124,0,0,0.06790123456790124,17.58641975308642,0)" xlink:href="#Z"/><use transform="matrix(0.06790123456790124,0,0,0.06790123456790124,31.16666666666667,0)" xlink:href="#aa"/></g><g id="l"><use transform="matrix(0.06790123456790124,0,0,0.06790123456790124,0,0)" xlink:href="#ab"/><use transform="matrix(0.06790123456790124,0,0,0.06790123456790124,13.580246913580249,0)" xlink:href="#ac"/></g><path fill="#333" d="M146-102V0H94v-102L6-248h54l60 105 60-105h54" id="ag"/><path fill="#333" d="M24 0v-248h195v40H76v63h132v40H76v65h150V0H24" id="ah"/><path fill="#333" d="M169-182c-1-43-94-46-97-3 18 66 151 10 154 114 3 95-165 93-204 36-6-8-10-19-12-30l50-8c3 46 112 56 116 5-17-69-150-10-154-114-4-87 153-88 188-35 5 8 8 18 10 28" id="ai"/><g id="m"><use transform="matrix(0.04320987654320988,0,0,0.04320987654320988,0,0)" xlink:href="#ag"/><use transform="matrix(0.04320987654320988,0,0,0.04320987654320988,10.370370370370372,0)" xlink:href="#ah"/><use transform="matrix(0.04320987654320988,0,0,0.04320987654320988,20.740740740740744,0)" xlink:href="#ai"/></g><path fill="#333" d="M175 0L67-191c6 58 2 128 3 191H24v-248h59L193-55c-6-58-2-129-3-193h46V0h-61" id="aj"/><path fill="#333" d="M140-251c80 0 125 45 125 126S219 4 139 4C58 4 15-44 15-125s44-126 125-126zm-1 214c52 0 73-35 73-88 0-50-21-86-72-86-52 0-73 35-73 86s22 88 72 88" id="ak"/><g id="n"><use transform="matrix(0.04320987654320988,0,0,0.04320987654320988,0,0)" xlink:href="#aj"/><use transform="matrix(0.04320987654320988,0,0,0.04320987654320988,11.19135802469136,0)" xlink:href="#ak"/></g><path fill="#fff" d="M30 0v-248h187v28H63v79h144v27H63v87h162V0H30" id="al"/><path fill="#fff" d="M59-47c-2 24 18 29 38 22v24C64 9 27 4 27-40v-127H5v-23h24l9-43h21v43h35v23H59v120" id="am"/><path fill="#fff" d="M100-194c63 0 86 42 84 106H49c0 40 14 67 53 68 26 1 43-12 49-29l28 8c-11 28-37 45-77 45C44 4 14-33 15-96c1-61 26-98 85-98zm52 81c6-60-76-77-97-28-3 7-6 17-6 28h103" id="an"/><g id="o"><use transform="matrix(0.04938271604938272,0,0,0.04938271604938272,0,0)" xlink:href="#al"/><use transform="matrix(0.04938271604938272,0,0,0.04938271604938272,11.851851851851853,0)" xlink:href="#L"/><use transform="matrix(0.04938271604938272,0,0,0.04938271604938272,21.7283950617284,0)" xlink:href="#am"/><use transform="matrix(0.04938271604938272,0,0,0.04938271604938272,26.666666666666668,0)" xlink:href="#an"/><use transform="matrix(0.04938271604938272,0,0,0.04938271604938272,36.543209876543216,0)" xlink:href="#M"/></g><path fill="#fff" d="M141-36C126-15 110 5 73 4 37 3 15-17 15-53c-1-64 63-63 125-63 3-35-9-54-41-54-24 1-41 7-42 31l-33-3c5-37 33-52 76-52 45 0 72 20 72 64v82c-1 20 7 32 28 27v20c-31 9-61-2-59-35zM48-53c0 20 12 33 32 33 41-3 63-29 60-74-43 2-92-5-92 41" id="ao"/><path fill="#fff" d="M210-169c-67 3-38 105-44 169h-31v-121c0-29-5-50-35-48C34-165 62-65 56 0H25l-1-190h30c1 10-1 24 2 32 10-44 99-50 107 0 11-21 27-35 58-36 85-2 47 119 55 194h-31v-121c0-29-5-49-35-48" id="ap"/><g id="p"><use transform="matrix(0.04938271604938272,0,0,0.04938271604938272,0,0)" xlink:href="#L"/><use transform="matrix(0.04938271604938272,0,0,0.04938271604938272,9.876543209876544,0)" xlink:href="#ao"/><use transform="matrix(0.04938271604938272,0,0,0.04938271604938272,19.75308641975309,0)" xlink:href="#ap"/><use transform="matrix(0.04938271604938272,0,0,0.04938271604938272,34.51851851851852,0)" xlink:href="#an"/></g><path fill="#fff" d="M106-169C34-169 62-67 57 0H25v-261h32l-1 103c12-21 28-36 61-36 89 0 53 116 60 194h-32v-121c2-32-8-49-39-48" id="aq"/><g id="q"><use transform="matrix(0.04938271604938272,0,0,0.04938271604938272,0,0)" xlink:href="#P"/><use transform="matrix(0.04938271604938272,0,0,0.04938271604938272,9.876543209876544,0)" xlink:href="#aq"/><use transform="matrix(0.04938271604938272,0,0,0.04938271604938272,19.75308641975309,0)" xlink:href="#I"/><use transform="matrix(0.04938271604938272,0,0,0.04938271604938272,29.629629629629633,0)" xlink:href="#L"/><use transform="matrix(0.04938271604938272,0,0,0.04938271604938272,39.50617283950618,0)" xlink:href="#an"/></g><g id="r"><use transform="matrix(0.04938271604938272,0,0,0.04938271604938272,0,0)" xlink:href="#al"/><use transform="matrix(0.04938271604938272,0,0,0.04938271604938272,11.851851851851853,0)" xlink:href="#L"/><use transform="matrix(0.04938271604938272,0,0,0.04938271604938272,21.7283950617284,0)" xlink:href="#am"/><use transform="matrix(0.04938271604938272,0,0,0.04938271604938272,26.666666666666668,0)" xlink:href="#an"/><use transform="matrix(0.04938271604938272,0,0,0.04938271604938272,36.543209876543216,0)" xlink:href="#M"/></g><path fill="#fff" d="M24 0v-261h32V0H24" id="ar"/><g id="s"><use transform="matrix(0.04938271604938272,0,0,0.04938271604938272,0,0)" xlink:href="#an"/><use transform="matrix(0.04938271604938272,0,0,0.04938271604938272,9.876543209876544,0)" xlink:href="#ap"/><use transform="matrix(0.04938271604938272,0,0,0.04938271604938272,24.641975308641978,0)" xlink:href="#ao"/><use transform="matrix(0.04938271604938272,0,0,0.04938271604938272,34.51851851851852,0)" xlink:href="#K"/><use transform="matrix(0.04938271604938272,0,0,0.04938271604938272,38.41975308641975,0)" xlink:href="#ar"/></g><path fill="#fff" d="M85-194c31 0 48 13 60 33l-1-100h32l1 261h-30c-2-10 0-23-3-31C134-8 116 4 85 4 32 4 16-35 15-94c0-66 23-100 70-100zm9 24c-40 0-46 34-46 75 0 40 6 74 45 74 42 0 51-32 51-76 0-42-9-74-50-73" id="as"/><g id="t"><use transform="matrix(0.04938271604938272,0,0,0.04938271604938272,0,0)" xlink:href="#ao"/><use transform="matrix(0.04938271604938272,0,0,0.04938271604938272,9.876543209876544,0)" xlink:href="#as"/><use transform="matrix(0.04938271604938272,0,0,0.04938271604938272,19.75308641975309,0)" xlink:href="#as"/><use transform="matrix(0.04938271604938272,0,0,0.04938271604938272,29.629629629629633,0)" xlink:href="#M"/><use transform="matrix(0.04938271604938272,0,0,0.04938271604938272,35.50617283950618,0)" xlink:href="#an"/><use transform="matrix(0.04938271604938272,0,0,0.04938271604938272,45.38271604938272,0)" xlink:href="#N"/><use transform="matrix(0.04938271604938272,0,0,0.04938271604938272,54.27160493827161,0)" xlink:href="#N"/></g><path fill="#fff" d="M206 0h-36l-40-164L89 0H53L-1-190h32L70-26l43-164h34l41 164 42-164h31" id="at"/><g id="u"><use transform="matrix(0.04938271604938272,0,0,0.04938271604938272,0,0)" xlink:href="#P"/><use transform="matrix(0.04938271604938272,0,0,0.04938271604938272,9.876543209876544,0)" xlink:href="#ao"/><use transform="matrix(0.04938271604938272,0,0,0.04938271604938272,19.75308641975309,0)" xlink:href="#N"/><use transform="matrix(0.04938271604938272,0,0,0.04938271604938272,28.641975308641978,0)" xlink:href="#N"/><use transform="matrix(0.04938271604938272,0,0,0.04938271604938272,37.53086419753087,0)" xlink:href="#at"/><use transform="matrix(0.04938271604938272,0,0,0.04938271604938272,50.320987654320994,0)" xlink:href="#I"/><use transform="matrix(0.04938271604938272,0,0,0.04938271604938272,60.19753086419754,0)" xlink:href="#M"/><use transform="matrix(0.04938271604938272,0,0,0.04938271604938272,66.07407407407408,0)" xlink:href="#as"/></g><path fill="#333" d="M140-251c81 0 123 46 123 126C263-46 219 4 140 4 59 4 17-45 17-125s42-126 123-126zm0 227c63 0 89-41 89-101s-29-99-89-99c-61 0-89 39-89 99S79-25 140-24" id="au"/><path fill="#333" d="M115-194c53 0 69 39 70 98 0 66-23 100-70 100C84 3 66-7 56-30L54 0H23l1-261h32v101c10-23 28-34 59-34zm-8 174c40 0 45-34 45-75 0-40-5-75-45-74-42 0-51 32-51 76 0 43 10 73 51 73" id="av"/><g id="v"><use transform="matrix(0.04938271604938272,0,0,0.04938271604938272,0,0)" xlink:href="#au"/><use transform="matrix(0.04938271604938272,0,0,0.04938271604938272,13.827160493827162,0)" xlink:href="#aa"/><use transform="matrix(0.04938271604938272,0,0,0.04938271604938272,23.703703703703706,0)" xlink:href="#av"/><use transform="matrix(0.04938271604938272,0,0,0.04938271604938272,33.580246913580254,0)" xlink:href="#af"/><use transform="matrix(0.04938271604938272,0,0,0.04938271604938272,43.4567901234568,0)" xlink:href="#U"/><use transform="matrix(0.04938271604938272,0,0,0.04938271604938272,53.333333333333336,0)" xlink:href="#S"/><use transform="matrix(0.04938271604938272,0,0,0.04938271604938272,59.209876543209894,0)" xlink:href="#V"/><use transform="matrix(0.04938271604938272,0,0,0.04938271604938272,69.08641975308643,0)" xlink:href="#Y"/><use transform="matrix(0.04938271604938272,0,0,0.04938271604938272,72.98765432098767,0)" xlink:href="#aa"/><use transform="matrix(0.04938271604938272,0,0,0.04938271604938272,82.86419753086422,0)" xlink:href="#Z"/><use transform="matrix(0.04938271604938272,0,0,0.04938271604938272,92.74074074074076,0)" xlink:href="#ad"/></g><path fill="#333" d="M190 0L58-211 59 0H30v-248h39L202-35l-2-213h31V0h-41" id="aw"/><g id="w"><use transform="matrix(0.05,0,0,0.05,0,0)" xlink:href="#aw"/><use transform="matrix(0.05,0,0,0.05,12.950000000000001,0)" xlink:href="#af"/></g><path fill="#fff" d="M30-248c118-7 216 8 213 122C240-48 200 0 122 0H30v-248zM63-27c89 8 146-16 146-99s-60-101-146-95v194" id="ax"/><path fill="#fff" d="M115-194c53 0 69 39 70 98 0 66-23 100-70 100C84 3 66-7 56-30L54 0H23l1-261h32v101c10-23 28-34 59-34zm-8 174c40 0 45-34 45-75 0-40-5-75-45-74-42 0-51 32-51 76 0 43 10 73 51 73" id="ay"/><g id="x"><use transform="matrix(0.04938271604938272,0,0,0.04938271604938272,0,0)" xlink:href="#ax"/><use transform="matrix(0.04938271604938272,0,0,0.04938271604938272,12.790123456790125,0)" xlink:href="#ao"/><use transform="matrix(0.04938271604938272,0,0,0.04938271604938272,22.66666666666667,0)" xlink:href="#N"/><use transform="matrix(0.04938271604938272,0,0,0.04938271604938272,31.555555555555557,0)" xlink:href="#aq"/><use transform="matrix(0.04938271604938272,0,0,0.04938271604938272,41.4320987654321,0)" xlink:href="#ay"/><use transform="matrix(0.04938271604938272,0,0,0.04938271604938272,51.308641975308646,0)" xlink:href="#I"/><use transform="matrix(0.04938271604938272,0,0,0.04938271604938272,61.18518518518519,0)" xlink:href="#ao"/><use transform="matrix(0.04938271604938272,0,0,0.04938271604938272,71.06172839506173,0)" xlink:href="#M"/><use transform="matrix(0.04938271604938272,0,0,0.04938271604938272,76.93827160493828,0)" xlink:href="#as"/></g><path fill="#333" d="M137-103V0h-34v-103L8-248h37l75 118 75-118h37" id="az"/><g id="y"><use transform="matrix(0.05,0,0,0.05,0,0)" xlink:href="#az"/><use transform="matrix(0.05,0,0,0.05,10.35,0)" xlink:href="#T"/><use transform="matrix(0.05,0,0,0.05,20.35,0)" xlink:href="#X"/></g><path fill="#fff" d="M143 0L79-87 56-68V0H24v-261h32v163l83-92h37l-77 82L181 0h-38" id="aA"/><g id="z"><use transform="matrix(0.04938271604938272,0,0,0.04938271604938272,0,0)" xlink:href="#H"/><use transform="matrix(0.04938271604938272,0,0,0.04938271604938272,9.876543209876544,0)" xlink:href="#K"/><use transform="matrix(0.04938271604938272,0,0,0.04938271604938272,13.777777777777779,0)" xlink:href="#L"/><use transform="matrix(0.04938271604938272,0,0,0.04938271604938272,23.654320987654323,0)" xlink:href="#aA"/></g><path fill="#fff" d="M30-248c87 1 191-15 191 75 0 78-77 80-158 76V0H30v-248zm33 125c57 0 124 11 124-50 0-59-68-47-124-48v98" id="aB"/><path fill="#fff" d="M179-190L93 31C79 59 56 82 12 73V49c39 6 53-20 64-50L1-190h34L92-34l54-156h33" id="aC"/><g id="A"><use transform="matrix(0.04938271604938272,0,0,0.04938271604938272,0,0)" xlink:href="#aB"/><use transform="matrix(0.04938271604938272,0,0,0.04938271604938272,11.851851851851853,0)" xlink:href="#ao"/><use transform="matrix(0.04938271604938272,0,0,0.04938271604938272,21.7283950617284,0)" xlink:href="#aC"/><use transform="matrix(0.04938271604938272,0,0,0.04938271604938272,30.617283950617285,0)" xlink:href="#ap"/><use transform="matrix(0.04938271604938272,0,0,0.04938271604938272,45.38271604938272,0)" xlink:href="#an"/><use transform="matrix(0.04938271604938272,0,0,0.04938271604938272,55.25925925925927,0)" xlink:href="#L"/><use transform="matrix(0.04938271604938272,0,0,0.04938271604938272,65.13580246913581,0)" xlink:href="#am"/></g><path fill="#fff" d="M33 0v-248h34V0H33" id="aD"/><path fill="#fff" d="M101-234c-31-9-42 10-38 44h38v23H63V0H32v-167H5v-23h27c-7-52 17-82 69-68v24" id="aE"/><g id="B"><use transform="matrix(0.04938271604938272,0,0,0.04938271604938272,0,0)" xlink:href="#aD"/><use transform="matrix(0.04938271604938272,0,0,0.04938271604938272,4.938271604938272,0)" xlink:href="#L"/><use transform="matrix(0.04938271604938272,0,0,0.04938271604938272,14.814814814814817,0)" xlink:href="#aE"/><use transform="matrix(0.04938271604938272,0,0,0.04938271604938272,19.75308641975309,0)" xlink:href="#I"/></g><g id="C"><use transform="matrix(0.04938271604938272,0,0,0.04938271604938272,0,0)" xlink:href="#Q"/><use transform="matrix(0.04938271604938272,0,0,0.04938271604938272,11.851851851851853,0)" xlink:href="#Z"/><use transform="matrix(0.04938271604938272,0,0,0.04938271604938272,21.7283950617284,0)" xlink:href="#S"/><use transform="matrix(0.04938271604938272,0,0,0.04938271604938272,27.604938271604947,0)" xlink:href="#T"/><use transform="matrix(0.04938271604938272,0,0,0.04938271604938272,37.48148148148149,0)" xlink:href="#T"/></g><path fill="#333" d="M59-47c-2 24 18 29 38 22v24C64 9 27 4 27-40v-127H5v-23h24l9-43h21v43h35v23H59v120" id="aF"/><g id="D"><use transform="matrix(0.04938271604938272,0,0,0.04938271604938272,0,0)" xlink:href="#aF"/><use transform="matrix(0.04938271604938272,0,0,0.04938271604938272,4.938271604938272,0)" xlink:href="#af"/></g><path fill="#333" d="M127-220V0H93v-220H8v-28h204v28h-85" id="aG"/><path fill="#333" d="M210-169c-67 3-38 105-44 169h-31v-121c0-29-5-50-35-48C34-165 62-65 56 0H25l-1-190h30c1 10-1 24 2 32 10-44 99-50 107 0 11-21 27-35 58-36 85-2 47 119 55 194h-31v-121c0-29-5-49-35-48" id="aH"/><g id="E"><use transform="matrix(0.04938271604938272,0,0,0.04938271604938272,0,0)" xlink:href="#aG"/><use transform="matrix(0.04938271604938272,0,0,0.04938271604938272,8.839506172839506,0)" xlink:href="#T"/><use transform="matrix(0.04938271604938272,0,0,0.04938271604938272,18.71604938271605,0)" xlink:href="#S"/><use transform="matrix(0.04938271604938272,0,0,0.04938271604938272,24.592592592592595,0)" xlink:href="#aH"/><use transform="matrix(0.04938271604938272,0,0,0.04938271604938272,39.358024691358025,0)" xlink:href="#X"/></g><path fill="#333" d="M101-234c-31-9-42 10-38 44h38v23H63V0H32v-167H5v-23h27c-7-52 17-82 69-68v24" id="aI"/><g id="F"><use transform="matrix(0.04938271604938272,0,0,0.04938271604938272,0,0)" xlink:href="#af"/><use transform="matrix(0.04938271604938272,0,0,0.04938271604938272,9.876543209876544,0)" xlink:href="#aI"/></g><path fill="#333" d="M185-189c-5-48-123-54-124 2 14 75 158 14 163 119 3 78-121 87-175 55-17-10-28-26-33-46l33-7c5 56 141 63 141-1 0-78-155-14-162-118-5-82 145-84 179-34 5 7 8 16 11 25" id="aJ"/><path fill="#333" d="M108 0H70L1-190h34L89-25l56-165h34" id="aK"/><path fill="#333" d="M96-169c-40 0-48 33-48 73s9 75 48 75c24 0 41-14 43-38l32 2c-6 37-31 61-74 61-59 0-76-41-82-99-10-93 101-131 147-64 4 7 5 14 7 22l-32 3c-4-21-16-35-41-35" id="aL"/><g id="G"><use transform="matrix(0.04938271604938272,0,0,0.04938271604938272,0,0)" xlink:href="#aJ"/><use transform="matrix(0.04938271604938272,0,0,0.04938271604938272,11.851851851851853,0)" xlink:href="#T"/><use transform="matrix(0.04938271604938272,0,0,0.04938271604938272,21.7283950617284,0)" xlink:href="#S"/><use transform="matrix(0.04938271604938272,0,0,0.04938271604938272,27.604938271604947,0)" xlink:href="#aK"/><use transform="matrix(0.04938271604938272,0,0,0.04938271604938272,36.49382716049384,0)" xlink:href="#Y"/><use transform="matrix(0.04938271604938272,0,0,0.04938271604938272,40.39506172839507,0)" xlink:href="#aL"/><use transform="matrix(0.04938271604938272,0,0,0.04938271604938272,49.28395061728396,0)" xlink:href="#T"/></g></defs></g></svg>